<svg xmlns="http://www.w3.org/2000/svg" version="1.1" xmlns:xlink="http://www.w3.org/1999/xlink" width="1000" height="1000"><style>
    #light-icon {
      display: inline;
    }
    #dark-icon {
      display: none;
    }

    @media (prefers-color-scheme: dark) {
      #light-icon {
        display: none;
      }
      #dark-icon {
        display: inline;
      }
    }
  </style><g id="light-icon"><svg xmlns="http://www.w3.org/2000/svg" version="1.1" xmlns:xlink="http://www.w3.org/1999/xlink" width="1000" height="1000"><g><g transform="matrix(1.4122099673779498,0,0,1.4122099673779498,0,0)"><svg xmlns="http://www.w3.org/2000/svg" version="1.1" xmlns:xlink="http://www.w3.org/1999/xlink" width="708.11" height="708.11"><svg id="Logo_1x1" data-name="Logo 1x1" xmlns="http://www.w3.org/2000/svg" viewBox="0 0 708.11 708.11"><defs><style>.cls-1{fill:none;stroke:#8fafd6;stroke-miterlimit:10;stroke-width:68px;}.cls-2{fill:#366196;}</style></defs><path class="cls-1" d="M468.25,388.75v-70a53.51,53.51,0,0,0-26.77-46.36l-60.59-35a53.54,53.54,0,0,0-53.53,0l-60.59,35A53.51,53.51,0,0,0,240,318.78v70a53.51,53.51,0,0,0,26.77,46.35l60.59,35a53.54,53.54,0,0,0,53.53,0l60.59-35A53.51,53.51,0,0,0,468.25,388.75Z"></path><path class="cls-2" d="M354.06,613q-73.17,0-131.47-29.65a222.32,222.32,0,0,1-91.93-86Q97,441,97.05,362V346.15q0-79.08,33.61-135.42a222.32,222.32,0,0,1,91.93-86q58.3-29.66,131.47-29.65t131.46,29.65a222.5,222.5,0,0,1,91.93,86Q611,267.07,611.06,346.15V362q0,79.1-33.61,135.42a222.5,222.5,0,0,1-91.93,86Q427.19,613,354.06,613Zm0-110.71q57.3,0,94.89-37.06T486.51,359v-9.89q0-69.17-37.07-106.26t-95.38-37.06q-57.35,0-94.9,37.06T221.6,349.11V359q0,69.19,37.56,106.26T354.06,502.32Z"></path></svg></svg></g></g></svg></g><g id="dark-icon"><svg xmlns="http://www.w3.org/2000/svg" version="1.1" xmlns:xlink="http://www.w3.org/1999/xlink" width="1000" height="1000"><g clip-path="url(#SvgjsClipPath1032)"><rect width="1000" height="1000" fill="#ffffff"></rect><g transform="matrix(1.4122099673779498,0,0,1.4122099673779498,0,0)"><svg xmlns="http://www.w3.org/2000/svg" version="1.1" xmlns:xlink="http://www.w3.org/1999/xlink" width="708.11" height="708.11"><svg id="Logo_1x1" data-name="Logo 1x1" xmlns="http://www.w3.org/2000/svg" viewBox="0 0 708.11 708.11"><defs><style>.cls-1{fill:none;stroke:#8fafd6;stroke-miterlimit:10;stroke-width:68px;}.cls-2{fill:#366196;}</style><clipPath id="SvgjsClipPath1032"><rect width="1000" height="1000" x="0" y="0" rx="250" ry="250"></rect></clipPath></defs><path class="cls-1" d="M468.25,388.75v-70a53.51,53.51,0,0,0-26.77-46.36l-60.59-35a53.54,53.54,0,0,0-53.53,0l-60.59,35A53.51,53.51,0,0,0,240,318.78v70a53.51,53.51,0,0,0,26.77,46.35l60.59,35a53.54,53.54,0,0,0,53.53,0l60.59-35A53.51,53.51,0,0,0,468.25,388.75Z"></path><path class="cls-2" d="M354.06,613q-73.17,0-131.47-29.65a222.32,222.32,0,0,1-91.93-86Q97,441,97.05,362V346.15q0-79.08,33.61-135.42a222.32,222.32,0,0,1,91.93-86q58.3-29.66,131.47-29.65t131.46,29.65a222.5,222.5,0,0,1,91.93,86Q611,267.07,611.06,346.15V362q0,79.1-33.61,135.42a222.5,222.5,0,0,1-91.93,86Q427.19,613,354.06,613Zm0-110.71q57.3,0,94.89-37.06T486.51,359v-9.89q0-69.17-37.07-106.26t-95.38-37.06q-57.35,0-94.9,37.06T221.6,349.11V359q0,69.19,37.56,106.26T354.06,502.32Z"></path></svg></svg></g></g></svg></g></svg>