<svg width="769" height="200" viewBox="0 0 769 200" fill="none" xmlns="http://www.w3.org/2000/svg">
<path d="M78.7359 61.726H160.232C162.969 61.7257 165.68 62.2647 168.209 63.3121C170.738 64.3595 173.036 65.8948 174.972 67.8304C176.908 69.7659 178.443 72.0638 179.491 74.5929C180.539 77.1219 181.078 79.8326 181.078 82.57V115.752C181.078 128.891 178.526 140.535 173.422 150.684C168.318 160.833 161.132 168.723 151.864 174.352C142.596 179.984 131.803 182.8 119.484 182.8C107.165 182.8 96.3719 179.984 87.1039 174.352C77.8346 168.723 70.6486 160.833 65.5459 150.684C60.4432 140.535 57.8912 128.891 57.8899 115.752V82.57C57.8904 77.0416 60.0869 71.7399 63.9962 67.8309C67.9056 63.922 73.2075 61.726 78.7359 61.726ZM98.0939 84.6C92.565 84.6005 87.2627 86.7972 83.3534 90.7069C79.4441 94.6166 77.2479 99.9191 77.2479 105.448V114.344C77.2479 123.609 79.0079 131.616 82.5279 138.364C86.0479 145.112 90.9752 150.391 97.3099 154.2C103.646 158.012 111.037 159.919 119.484 159.92C128.164 159.92 135.614 158.013 141.834 154.2C148.054 150.387 152.921 145.107 156.434 138.362C159.954 131.615 161.714 123.609 161.714 114.342V105.448C161.714 99.9203 159.519 94.6188 155.612 90.7092C151.704 86.7996 146.404 84.6021 140.876 84.6H98.0939Z" fill="#51CDBE"/>
<path d="M40.042 17.2H121.498C126.954 17.1999 132.192 19.3386 136.089 23.1571C139.985 26.9756 142.23 32.1694 142.34 37.624C142.812 60.982 143.74 90.552 135.044 105.624C134.844 105.984 134.644 106.346 134.444 106.716C123.916 127.222 104.28 138.422 80.8 138.274C57.308 138.424 37.666 127.218 27.142 106.71C26.954 106.344 26.752 105.984 26.542 105.628C17.862 90.7 18.718 60.97 19.2 37.614C19.3125 32.161 21.5579 26.9694 25.4543 23.153C29.3508 19.3365 34.5879 17.1994 40.042 17.2ZM38.442 60.866C38.406 72.934 39.064 85.706 43.546 93.368C43.73 93.686 43.914 94.002 44.088 94.326C51.444 108 64.854 115.514 80.8 115.4C97.09 115.518 110.026 108.142 117.498 94.324C117.672 94.004 117.854 93.688 118.04 93.374C122.512 85.774 123.194 72.96 123.164 60.876C123.152 55.3553 120.95 50.0648 117.042 46.1654C113.134 42.2659 107.839 40.076 102.318 40.076H59.292C53.7732 40.0765 48.4797 42.2653 44.572 46.1624C40.6643 50.0596 38.4614 55.3472 38.446 60.866H38.442Z" fill="#32AEA4"/>
<path d="M245.395 144V48.825H280.765C291.385 48.825 300.385 50.67 307.765 54.36C315.235 58.05 320.905 63.45 324.775 70.56C328.735 77.58 330.715 86.175 330.715 96.345C330.715 106.515 328.735 115.155 324.775 122.265C320.905 129.375 315.235 134.775 307.765 138.465C300.385 142.155 291.385 144 280.765 144H245.395ZM262.675 129.69H279.685C290.755 129.69 298.99 126.945 304.39 121.455C309.88 115.875 312.625 107.505 312.625 96.345C312.625 85.185 309.88 76.86 304.39 71.37C298.9 65.88 290.665 63.135 279.685 63.135H262.675V129.69ZM376.712 145.35C369.872 145.35 363.932 143.955 358.892 141.165C353.852 138.375 349.937 134.415 347.147 129.285C344.357 124.065 342.962 117.945 342.962 110.925C342.962 103.905 344.357 97.83 347.147 92.7C349.937 87.57 353.852 83.61 358.892 80.82C363.932 78.03 369.872 76.635 376.712 76.635C383.552 76.635 389.492 78.03 394.532 80.82C399.572 83.61 403.487 87.57 406.277 92.7C409.067 97.83 410.462 103.905 410.462 110.925C410.462 117.945 409.067 124.065 406.277 129.285C403.487 134.415 399.572 138.375 394.532 141.165C389.492 143.955 383.552 145.35 376.712 145.35ZM376.712 132.525C381.752 132.525 385.802 130.725 388.862 127.125C391.922 123.435 393.452 118.035 393.452 110.925C393.452 103.725 391.922 98.37 388.862 94.86C385.802 91.26 381.752 89.46 376.712 89.46C371.672 89.46 367.622 91.26 364.562 94.86C361.502 98.37 359.972 103.725 359.972 110.925C359.972 118.035 361.502 123.435 364.562 127.125C367.622 130.725 371.672 132.525 376.712 132.525ZM424.39 144V48.825H441.265V106.065H441.535L468.13 77.985H488.515L455.305 113.085V106.065L490.405 144H469.75L441.535 114.57H441.265V144H424.39ZM495.688 63.81V47.34H514.588V63.81H495.688ZM496.768 144V77.985H513.643V144H496.768ZM555.342 145.35C551.652 145.35 548.052 145.035 544.542 144.405C541.122 143.775 537.972 142.92 535.092 141.84C532.212 140.67 529.692 139.23 527.532 137.52L531.852 126.45C534.102 127.89 536.532 129.15 539.142 130.23C541.752 131.31 544.452 132.12 547.242 132.66C550.032 133.2 552.777 133.47 555.477 133.47C559.797 133.47 562.992 132.75 565.062 131.31C567.222 129.78 568.302 127.8 568.302 125.37C568.302 123.3 567.582 121.725 566.142 120.645C564.792 119.475 562.722 118.62 559.932 118.08L546.432 115.515C540.852 114.435 536.577 112.41 533.607 109.44C530.727 106.38 529.287 102.465 529.287 97.695C529.287 93.375 530.457 89.64 532.797 86.49C535.227 83.34 538.557 80.91 542.787 79.2C547.017 77.49 551.877 76.635 557.367 76.635C560.517 76.635 563.577 76.95 566.547 77.58C569.517 78.12 572.307 78.975 574.917 80.145C577.617 81.225 579.957 82.665 581.937 84.465L577.347 95.535C575.637 94.095 573.657 92.88 571.407 91.89C569.157 90.81 566.817 90 564.387 89.46C562.047 88.83 559.752 88.515 557.502 88.515C553.092 88.515 549.807 89.28 547.647 90.81C545.577 92.34 544.542 94.365 544.542 96.885C544.542 98.775 545.172 100.35 546.432 101.61C547.692 102.87 549.627 103.725 552.237 104.175L565.737 106.74C571.587 107.82 575.997 109.8 578.967 112.68C582.027 115.56 583.557 119.43 583.557 124.29C583.557 128.7 582.387 132.48 580.047 135.63C577.707 138.78 574.422 141.21 570.192 142.92C565.962 144.54 561.012 145.35 555.342 145.35ZM626.676 145.35C617.856 145.35 611.286 143.145 606.966 138.735C602.646 134.325 600.486 127.89 600.486 119.43V90.675H587.796V77.985H600.486V58.275H617.361V77.985H637.341V90.675H617.361V118.485C617.361 122.805 618.306 126.045 620.196 128.205C622.086 130.365 625.146 131.445 629.376 131.445C630.636 131.445 631.941 131.31 633.291 131.04C634.641 130.68 636.036 130.32 637.476 129.96L640.041 142.38C638.421 143.28 636.351 144 633.831 144.54C631.401 145.08 629.016 145.35 626.676 145.35ZM648.248 144V77.985H664.718V93.915H663.368C664.628 88.515 667.103 84.42 670.793 81.63C674.483 78.75 679.388 77.085 685.508 76.635L690.638 76.23L691.718 90.54L681.998 91.485C676.508 92.025 672.368 93.735 669.578 96.615C666.788 99.405 665.393 103.365 665.393 108.495V144H648.248ZM711.141 168.3L724.911 137.925V144.945L695.886 77.985H713.841L734.361 129.15H730.311L751.236 77.985H768.246L728.556 168.3H711.141Z" fill="#32AEA4"/>
</svg>
