<svg id="Calque_1" data-name="Calque 1" xmlns="http://www.w3.org/2000/svg" viewBox="0 0 1000 1000"><defs><style>.cls-1{fill:#51cdbe;}.cls-2{fill:#32aea4;}</style></defs><path class="cls-1" d="M393.68,308.63H801.16A104.22,104.22,0,0,1,905.39,412.85V578.76q0,98.54-38.28,174.66T759.32,871.76Q689.81,914,597.42,914t-161.9-42.24Q366,829.54,327.73,753.42T289.45,578.76V412.85A104.23,104.23,0,0,1,393.68,308.63ZM490.47,423A104.24,104.24,0,0,0,386.24,527.24v44.48q0,69.49,26.4,120.1T486.55,771q47.52,28.59,110.87,28.6,65.1,0,111.75-28.6t73-79.19q26.4-50.6,26.4-120.1V527.24A104.23,104.23,0,0,0,704.38,423Z"/><path class="cls-2" d="M200.21,86H607.49A104.23,104.23,0,0,1,711.7,188.12c2.36,116.79,7,264.64-36.48,340-1,1.8-2,3.61-3,5.46C619.58,636.11,521.4,692.11,404,691.37c-117.46.75-215.67-55.28-268.29-157.82-.94-1.83-1.95-3.63-3-5.41C89.31,453.5,93.59,304.85,96,188.07A104.22,104.22,0,0,1,200.21,86Zm-8,218.33c-.18,60.34,3.11,124.2,25.52,162.51.92,1.59,1.84,3.17,2.71,4.79C257.22,540,324.27,577.57,404,577c81.45.59,146.13-36.29,183.49-105.38.87-1.6,1.78-3.18,2.71-4.75,22.36-38,25.77-102.07,25.62-162.49a104.23,104.23,0,0,0-104.23-104H296.46A104.24,104.24,0,0,0,192.23,304.33Z"/></svg>